<svg width="1600" height="1200" viewBox="0 0 1600 1200" fill="none" xmlns="http://www.w3.org/2000/svg">
  <g opacity="0.11">
    <path d="M-60 220C160 180 250 280 430 250C620 220 690 120 910 150C1100 180 1200 280 1410 240C1500 220 1560 180 1660 190" stroke="#38BDF8" stroke-width="1.5"/>
    <path d="M-40 430C160 390 270 490 450 460C640 430 740 320 960 350C1150 380 1240 500 1450 470C1540 450 1600 410 1660 420" stroke="#8B5CF6" stroke-width="1.5"/>
    <path d="M-80 690C140 650 260 760 430 720C620 680 720 560 930 590C1140 620 1240 760 1440 730C1520 720 1590 670 1680 680" stroke="#14B8A6" stroke-width="1.5"/>
    <path d="M-20 930C180 900 260 1010 460 980C670 950 760 830 980 860C1180 890 1270 1010 1470 990C1550 980 1610 930 1680 940" stroke="#38BDF8" stroke-width="1.5"/>
  </g>
</svg>
